name ./resultDataOpenSim/trcMotMarkerGrf/sub10/grf-05-06.mot
datacolumns 19
datarows 15
range 0.50000000 0.55600000
endheader

                time	     ground_force_vx	     ground_force_vy	     ground_force_vz	     ground_force_px	     ground_force_py	     ground_force_pz	   l_ground_force_vx	   l_ground_force_vy	   l_ground_force_vz	   l_ground_force_px	   l_ground_force_py	   l_ground_force_pz	     ground_torque_x	     ground_torque_y	     ground_torque_z	   l_ground_torque_x	   l_ground_torque_y	   l_ground_torque_z	
          0.50000000	         39.73589246	        451.09119851	         -6.35012613	         -0.78638645	          0.00000000	         -0.05032854	          0.00000000	          0.00000000	          0.00000000	          0.00000000	          0.00000000	          0.00000000	          0.00000000	          2.87727640	          0.00000000	          0.00000000	          0.00000000	          0.00000000	
          0.50400000	         41.49448895	        454.01586799	         -7.40366372	         -0.78507936	          0.00000000	         -0.05002648	          0.00000000	          0.00000000	          0.00000000	          0.00000000	          0.00000000	          0.00000000	          0.00000000	          2.87543332	          0.00000000	          0.00000000	          0.00000000	          0.00000000	
          0.50800000	         43.45970210	        457.07116748	         -8.80499559	         -0.78371104	          0.00000000	         -0.04968860	          0.00000000	          0.00000000	          0.00000000	          0.00000000	          0.00000000	          0.00000000	          0.00000000	          2.85653712	          0.00000000	          0.00000000	          0.00000000	          0.00000000	
          0.51200000	         45.67401905	        460.27081371	        -10.40260614	         -0.78229226	          0.00000000	         -0.04931537	          0.00000000	          0.00000000	          0.00000000	          0.00000000	          0.00000000	          0.00000000	          0.00000000	          2.83596735	          0.00000000	          0.00000000	          0.00000000	          0.00000000	
          0.51600000	         48.07662133	        463.65826256	        -12.00442809	         -0.78081459	          0.00000000	         -0.04891580	          0.00000000	          0.00000000	          0.00000000	          0.00000000	          0.00000000	          0.00000000	          0.00000000	          2.82873843	          0.00000000	          0.00000000	          0.00000000	          0.00000000	
          0.52000000	         50.52101406	        467.28392802	        -13.42304457	         -0.77925203	          0.00000000	         -0.04850554	          0.00000000	          0.00000000	          0.00000000	          0.00000000	          0.00000000	          0.00000000	          0.00000000	          2.84640238	          0.00000000	          0.00000000	          0.00000000	          0.00000000	
          0.52400000	         52.82018850	        471.18517921	        -14.52424927	         -0.77758703	          0.00000000	         -0.04810197	          0.00000000	          0.00000000	          0.00000000	          0.00000000	          0.00000000	          0.00000000	          0.00000000	          2.89511939	          0.00000000	          0.00000000	          0.00000000	          0.00000000	
          0.52800000	         54.80380936	        475.38321482	        -15.26192857	         -0.77580785	          0.00000000	         -0.04771630	          0.00000000	          0.00000000	          0.00000000	          0.00000000	          0.00000000	          0.00000000	          0.00000000	          2.97494322	          0.00000000	          0.00000000	          0.00000000	          0.00000000	
          0.53200000	         56.36812645	        479.89879401	        -15.68853124	         -0.77389558	          0.00000000	         -0.04735298	          0.00000000	          0.00000000	          0.00000000	          0.00000000	          0.00000000	          0.00000000	          0.00000000	          3.08007802	          0.00000000	          0.00000000	          0.00000000	          0.00000000	
          0.53600000	         57.50049995	        484.76676582	        -15.94055494	         -0.77182790	          0.00000000	         -0.04700819	          0.00000000	          0.00000000	          0.00000000	          0.00000000	          0.00000000	          0.00000000	          0.00000000	          3.19990518	          0.00000000	          0.00000000	          0.00000000	          0.00000000	
          0.54000000	         58.27125210	        490.02801046	        -16.20333431	         -0.76959268	          0.00000000	         -0.04667231	          0.00000000	          0.00000000	          0.00000000	          0.00000000	          0.00000000	          0.00000000	          0.00000000	          3.32074881	          0.00000000	          0.00000000	          0.00000000	          0.00000000	
          0.54400000	         58.80148373	        495.71168053	        -16.66296656	         -0.76719757	          0.00000000	         -0.04633938	          0.00000000	          0.00000000	          0.00000000	          0.00000000	          0.00000000	          0.00000000	          0.00000000	          3.42835682	          0.00000000	          0.00000000	          0.00000000	          0.00000000	
          0.54800000	         59.22262272	        501.82905241	        -17.45843878	         -0.76466007	          0.00000000	         -0.04601158	          0.00000000	          0.00000000	          0.00000000	          0.00000000	          0.00000000	          0.00000000	          0.00000000	          3.51082173	          0.00000000	          0.00000000	          0.00000000	          0.00000000	
          0.55200000	         59.63954486	        508.37929098	        -18.64779069	         -0.76199796	          0.00000000	         -0.04569915	          0.00000000	          0.00000000	          0.00000000	          0.00000000	          0.00000000	          0.00000000	          0.00000000	          3.56132847	          0.00000000	          0.00000000	          0.00000000	          0.00000000	
          0.55600000	         60.10539383	        515.36127327	        -20.19499774	         -0.75923080	          0.00000000	         -0.04541756	          0.00000000	          0.00000000	          0.00000000	          0.00000000	          0.00000000	          0.00000000	          0.00000000	          3.57997652	          0.00000000	          0.00000000	          0.00000000	          0.00000000	
